<svg aria-hidden="true" style="position: absolute; width: 0; height: 0; overflow: hidden;" version="1.1" xmlns="http://www.w3.org/2000/svg" xmlns:xlink="http://www.w3.org/1999/xlink">
<defs>
<symbol id="icon-facebook" viewBox="0 0 33 32">
<path d="M32.444 16.040c0-8.854-7.168-16.040-16-16.040s-16 7.186-16 16.040c0 7.763 5.504 14.228 12.8 15.719v-10.907h-3.2v-4.812h3.2v-4.010c0-3.096 2.512-5.614 5.6-5.614h4v4.812h-3.2c-0.88 0-1.6 0.722-1.6 1.604v3.208h4.8v4.812h-4.8v11.148c8.080-0.802 14.4-7.635 14.4-15.96z"></path>
</symbol>
<symbol id="icon-instagram" viewBox="0 0 32 32">
<path d="M15.996 10.664c-2.938 0-5.336 2.398-5.336 5.336s2.398 5.336 5.336 5.336c2.938 0 5.335-2.398 5.335-5.336s-2.398-5.336-5.335-5.336zM31.998 16c0-2.209 0.020-4.399-0.104-6.604-0.124-2.562-0.708-4.835-2.582-6.709-1.877-1.877-4.147-2.458-6.708-2.582-2.209-0.124-4.399-0.104-6.604-0.104-2.209 0-4.399-0.020-6.604 0.104-2.562 0.124-4.835 0.708-6.708 2.582-1.877 1.877-2.458 4.147-2.582 6.709-0.124 2.21-0.104 4.399-0.104 6.604s-0.020 4.399 0.104 6.604c0.124 2.562 0.708 4.835 2.582 6.709 1.877 1.877 4.147 2.458 6.708 2.582 2.209 0.124 4.399 0.104 6.604 0.104 2.209 0 4.399 0.020 6.604-0.104 2.562-0.124 4.835-0.709 6.708-2.582 1.877-1.877 2.458-4.147 2.582-6.709 0.128-2.205 0.104-4.395 0.104-6.604zM15.996 24.21c-4.543 0-8.209-3.667-8.209-8.21s3.666-8.21 8.209-8.21c4.543 0 8.209 3.666 8.209 8.21s-3.666 8.21-8.209 8.21zM24.541 9.372c-1.061 0-1.917-0.857-1.917-1.917s0.857-1.917 1.917-1.917c1.061 0 1.917 0.857 1.917 1.917 0 0.252-0.049 0.501-0.145 0.734s-0.237 0.444-0.416 0.622-0.39 0.319-0.622 0.416c-0.233 0.096-0.482 0.146-0.734 0.145z"></path>
</symbol>
<symbol id="icon-telegram" viewBox="0 0 33 32">
<path d="M16.889 0c-8.832 0-16 7.168-16 16s7.168 16 16 16c8.832 0 16-7.168 16-16s-7.168-16-16-16zM24.313 10.88c-0.24 2.528-1.28 8.672-1.808 11.504-0.224 1.2-0.672 1.6-1.088 1.648-0.928 0.080-1.632-0.608-2.528-1.2-1.408-0.928-2.208-1.504-3.568-2.4-1.584-1.040-0.56-1.616 0.352-2.544 0.24-0.24 4.336-3.968 4.416-4.304 0.011-0.051 0.010-0.104-0.004-0.154s-0.040-0.096-0.076-0.134c-0.096-0.080-0.224-0.048-0.336-0.032-0.144 0.032-2.384 1.52-6.752 4.464-0.64 0.432-1.216 0.656-1.728 0.64-0.576-0.016-1.664-0.32-2.48-0.592-1.008-0.32-1.792-0.496-1.728-1.056 0.032-0.288 0.432-0.576 1.184-0.88 4.672-2.032 7.776-3.376 9.328-4.016 4.448-1.856 5.36-2.176 5.968-2.176 0.128 0 0.432 0.032 0.624 0.192 0.16 0.128 0.208 0.304 0.224 0.432-0.016 0.096 0.016 0.384 0 0.608z"></path>
</symbol>
<symbol id="icon-twitter" viewBox="0 0 32 32">
<path d="M16 0c-8.836 0-16 7.164-16 16s7.164 16 16 16c8.836 0 16-7.164 16-16s-7.164-16-16-16zM23.689 12.061c0.011 0.168 0.011 0.343 0.011 0.514 0 5.243-3.993 11.282-11.289 11.282-2.25 0-4.336-0.654-6.093-1.779 0.321 0.036 0.629 0.050 0.957 0.050 1.857 0 3.564-0.629 4.925-1.693-1.743-0.036-3.207-1.179-3.707-2.75 0.611 0.089 1.161 0.089 1.789-0.071-0.897-0.182-1.704-0.67-2.283-1.379s-0.894-1.598-0.892-2.513v-0.050c0.525 0.296 1.143 0.479 1.789 0.504-0.543-0.362-0.989-0.853-1.297-1.429s-0.47-1.219-0.47-1.872c0-0.739 0.193-1.414 0.539-2 0.996 1.226 2.239 2.229 3.648 2.943s2.953 1.124 4.53 1.203c-0.561-2.696 1.454-4.879 3.875-4.879 1.143 0 2.171 0.479 2.896 1.25 0.896-0.168 1.754-0.504 2.518-0.954-0.296 0.918-0.918 1.693-1.743 2.182 0.8-0.086 1.571-0.307 2.286-0.618-0.539 0.793-1.214 1.496-1.989 2.057z"></path>
</symbol>
<symbol id="icon-burger-menu-svg" viewBox="0 0 28 32">
<path d="M15.339 2.987c-0.259 0.426-0.388 1.155-0.263 1.529 0.053 0.165 0.245 0.645 0.414 1.075 0.833 2 1.095 4.861 0.703 7.611-0.606 4.214-2.683 8.831-5.975 13.293-0.48 0.642-0.612 0.89-0.703 1.283-0.307 1.3 0.676 2.431 1.946 2.229 0.698-0.103 1.062-0.392 1.85-1.445 0.901-1.221 1.848-2.669 2.644-4.057 0.724-1.25 1.794-3.374 1.968-3.903l0.105-0.307-0.907-0.153c-0.914-0.148-1.073-0.228-1.011-0.494s0.256-0.288 1.181-0.139c0.518 0.084 0.964 0.132 0.998 0.108 0.089-0.064 0.376-0.761 0.343-0.814-0.017-0.027-0.482-0.138-1.037-0.234-1.001-0.192-1.171-0.274-1.109-0.54s0.231-0.28 1.335-0.113l1.104 0.167 0.133-0.452 0.144-0.45-1.101-0.178c-1.146-0.186-1.38-0.308-1.187-0.648 0.082-0.155 0.219-0.156 1.29 0.005l1.196 0.188 0.223-0.911-1.161-0.194c-0.643-0.11-1.194-0.248-1.227-0.301-0.079-0.127-0.021-0.351 0.116-0.449 0.055-0.039 0.598 0.007 1.204 0.105s1.136 0.154 1.177 0.125c0.041-0.029 0.096-0.242 0.131-0.489l0.055-0.435-1.124-0.182c-1.102-0.178-1.271-0.26-1.21-0.526s0.262-0.293 1.291-0.121c0.573 0.093 1.074 0.15 1.115 0.121 0.034-0.024 0.102-0.439 0.143-0.912 0.316-3.505-0.249-7.153-1.435-9.258-0.432-0.772-0.599-0.86-0.988-1.055-0.222-0.102-0.441-0.124-0.677-0.12-0.369 0.012-0.495 0.064-0.959 0.366-0.412 0.275-0.581 0.434-0.735 0.679zM17.186 2.837c0.37 0.054 0.455 0.11 0.613 0.363 0.5 0.801-0.181 1.866-1.096 1.718s-1.070-1.349-0.248-1.935c0.26-0.186 0.363-0.211 0.731-0.145zM11.248 27.129c1.106-0.163 1.502 1.263 0.543 1.947-0.253 0.181-0.361 0.199-0.724 0.141-0.359-0.052-0.455-0.11-0.6-0.343-0.454-0.727-0.046-1.627 0.782-1.744z"></path>
<path d="M15.941 4.015c0.009 0.283 0.256 0.473 0.477 0.383 0.284-0.116 0.402-0.402 0.269-0.616-0.146-0.233-0.333-0.264-0.573-0.093-0.116 0.083-0.183 0.198-0.173 0.326zM11.534 27.937c-0.094 0.183 0.082 0.511 0.28 0.543 0.209 0.034 0.514-0.222 0.505-0.428-0.026-0.502-0.558-0.576-0.785-0.115zM1.149 15.008c-0.064 0.131 0.012 0.285 0.839 1.621l0.912 1.473 0.689-0.464c0.575-0.383 0.721-0.459 0.842-0.403 0.102 0.041 0.143 0.106 0.143 0.23-0.003 0.135-0.125 0.251-0.675 0.673l-0.664 0.504 0.252 0.408c0.147 0.237 0.31 0.423 0.386 0.436 0.097 0.016 1.267-0.793 4.856-3.361 5.417-3.876 4.991-3.486 4.576-4.157l-0.232-0.375-3.602 2.578c-3.662 2.621-3.767 2.686-3.909 2.456-0.029-0.046-0.035-0.165-0.007-0.261 0.037-0.159 0.45-0.474 3.617-2.74l3.575-2.559-0.346-0.559c-0.403-0.651-0.46-0.962-0.25-1.387 0.121-0.257 0.26-0.376 1.485-1.253l1.352-0.968-0.088-0.298c-0.048-0.155-0.137-0.424-0.206-0.583s-0.15-0.367-0.183-0.467l-0.063-0.164-6.608 4.729c-4.368 3.135-6.639 4.789-6.691 4.892z"></path>
</symbol>
<symbol id="icon-footer-logo" viewBox="0 0 32 32">
<path fill="#323843" style="fill: var(--color2, #323843)" d="M32.002 16.001c0 8.837-7.164 16.001-16.001 16.001s-16.001-7.164-16.001-16.001c0-8.837 7.164-16.001 16.001-16.001s16.001 7.164 16.001 16.001z"></path>
<path fill="#ff4300" style="fill: var(--color3, #ff4300)" d="M21.044 5.078c-0.279 0.32-0.485 0.959-0.428 1.342 0.024 0.168 0.125 0.669 0.213 1.115 0.452 2.094 0.299 4.822-0.4 7.258-1.076 3.732-3.469 7.415-6.884 10.606-0.497 0.457-0.644 0.65-0.774 0.988-0.435 1.117 0.26 2.448 1.377 2.625 0.614 0.106 0.964-0.057 1.779-0.808 0.991-0.934 1.908-1.913 2.762-2.947l0.044-0.054c0.787-0.95 1.986-2.612 2.205-3.053l0.131-0.254-0.759-0.403c-0.765-0.401-0.891-0.52-0.803-0.749s0.258-0.194 1.032 0.212c0.434 0.227 0.81 0.4 0.843 0.387 0.085-0.034 0.424-0.597 0.402-0.656-0.011-0.030-0.396-0.267-0.86-0.515-0.835-0.467-0.97-0.591-0.882-0.82s0.235-0.194 1.162 0.279l0.926 0.473 0.174-0.381 0.183-0.376-0.923-0.483c-0.959-0.502-1.145-0.682-0.934-0.942 0.090-0.12 0.209-0.082 1.107 0.376l1.003 0.518 0.155-0.39 0.156-0.391-0.972-0.514c-0.538-0.287-0.993-0.573-1.014-0.632-0.052-0.14 0.028-0.332 0.159-0.383 0.052-0.020 0.513 0.178 1.020 0.444s0.955 0.47 0.994 0.454c0.040-0.015 0.115-0.197 0.177-0.415l0.105-0.388-0.941-0.492c-0.922-0.483-1.057-0.607-0.969-0.836s0.264-0.197 1.125 0.259c0.48 0.251 0.902 0.448 0.942 0.433 0.032-0.013 0.145-0.378 0.243-0.805 0.734-3.159 0.73-6.703-0.012-8.997-0.27-0.84-0.401-0.97-0.709-1.262-0.177-0.159-0.363-0.242-0.565-0.307-0.319-0.095-0.434-0.083-0.873 0.064-0.39 0.136-0.556 0.235-0.72 0.418zM22.649 5.469c0.311 0.157 0.376 0.232 0.479 0.513 0.324 0.887-0.402 1.678-1.167 1.278s-0.741-1.559 0.042-1.866c0.248-0.098 0.34-0.091 0.647 0.075zM14.346 26.285c0.972 0.168 1.123 1.603 0.209 1.961-0.241 0.095-0.336 0.081-0.64-0.078-0.302-0.151-0.376-0.232-0.47-0.491-0.295-0.805 0.175-1.522 0.901-1.393z"></path>
<path fill="#ff4300" style="fill: var(--color3, #ff4300)" d="M21.709 6.239c-0.030 0.265 0.157 0.512 0.359 0.493 0.259-0.026 0.398-0.258 0.312-0.494-0.095-0.258-0.251-0.34-0.48-0.251-0.108 0.038-0.184 0.135-0.191 0.252l-0 0.001zM14.201 27.084c-0.104 0.142 0.003 0.497 0.169 0.584 0.175 0.092 0.471-0.058 0.49-0.251 0.043-0.473-0.403-0.695-0.659-0.333zM7.226 12.421c-0.073 0.107-0.028 0.279 0.511 1.817l0.594 1.697 0.661-0.24c0.551-0.195 0.688-0.225 0.786-0.134 0.084 0.070 0.11 0.146 0.093 0.265-0.021 0.13-0.143 0.205-0.678 0.445l-0.645 0.285 0.165 0.47c0.095 0.273 0.213 0.502 0.276 0.537 0.082 0.045 1.209-0.382 4.673-1.774 5.229-2.102 4.807-1.854 4.537-2.627l-0.151-0.432-3.478 1.398c-3.536 1.421-3.636 1.452-3.729 1.187-0.018-0.053-0.008-0.17 0.030-0.254 0.053-0.143 0.455-0.321 3.513-1.55l3.452-1.387-0.225-0.644c-0.263-0.75-0.271-1.067-0.030-1.414 0.14-0.211 0.277-0.284 1.46-0.759l1.306-0.525-0.036-0.314c-0.021-0.165-0.062-0.451-0.101-0.625s-0.081-0.4-0.096-0.506l-0.032-0.177-6.38 2.564c-4.218 1.704-6.414 2.612-6.473 2.696z"></path>
</symbol>
<symbol id="icon-star" viewBox="0 0 12 13">
<path d="M6 10.202L3.18351 12.3391C3.04395 12.4526 2.89171 12.506 2.72678 12.4995C2.56185 12.4934 2.41595 12.4463 2.28908 12.358C2.16221 12.2697 2.06401 12.15 1.99449 11.9987C1.92446 11.8474 1.92116 11.6835 1.98459 11.5069L3.06932 8.00817L0.309923 6.06021C0.15768 5.95934 0.0625283 5.82696 0.0244676 5.66305C-0.0135931 5.49915 -0.00724962 5.34785 0.043498 5.20916C0.0942456 5.07047 0.183054 4.94741 0.309923 4.83999C0.436792 4.73307 0.589035 4.67961 0.766652 4.67961H4.17309L5.27685 1.04846C5.34028 0.871941 5.43873 0.736278 5.5722 0.641464C5.70516 0.547155 5.84776 0.5 6 0.5C6.15224 0.5 6.29484 0.547155 6.4278 0.641464C6.56127 0.736278 6.65972 0.871941 6.72315 1.04846L7.82691 4.67961H11.2333C11.411 4.67961 11.5632 4.73307 11.6901 4.83999C11.8169 4.94741 11.9058 5.07047 11.9565 5.20916C12.0073 5.34785 12.0136 5.49915 11.9755 5.66305C11.9375 5.82696 11.8423 5.95934 11.6901 6.06021L8.93068 8.00817L10.0154 11.5069C10.0788 11.6835 10.0758 11.8474 10.0063 11.9987C9.93624 12.15 9.83779 12.2697 9.71092 12.358C9.58405 12.4463 9.43815 12.4934 9.27322 12.4995C9.10829 12.506 8.95605 12.4526 8.81649 12.3391L6 10.202Z" fill="#F24E1E"/>
</symbol>
<symbol id="icon-logo" viewBox="0 0 37 32">
<path fill="#eee" style="fill: var(--color1, #eee)" d="M0 12.955h2.128c0.672 0 1.181 0.052 1.525 0.156 0.348 0.103 0.628 0.315 0.841 0.632 0.213 0.315 0.319 0.824 0.319 1.527 0 0.475-0.076 0.807-0.228 0.994-0.148 0.187-0.444 0.332-0.886 0.432 0.493 0.11 0.827 0.295 1.003 0.552 0.176 0.254 0.263 0.646 0.263 1.175v0.753c0 0.549-0.064 0.956-0.192 1.221-0.118 0.256-0.333 0.451-0.596 0.54l-0.007 0.002c-0.277 0.097-0.845 0.146-1.702 0.146h-2.467v-8.131zM2.133 14.346v1.808c0.091-0.003 0.162-0.005 0.213-0.005 0.209 0 0.343-0.050 0.4-0.151 0.057-0.104 0.086-0.397 0.086-0.879 0-0.254-0.023-0.432-0.071-0.532-0.047-0.104-0.11-0.169-0.187-0.196-0.074-0.027-0.221-0.042-0.441-0.045zM2.133 17.42v2.275c0.3-0.011 0.492-0.057 0.573-0.141 0.085-0.084 0.127-0.29 0.127-0.618v-0.758c0-0.348-0.037-0.559-0.112-0.633s-0.27-0.116-0.588-0.125zM7.503 17.003h-1.92v-0.447c0-0.516 0.059-0.912 0.177-1.19 0.122-0.281 0.363-0.529 0.725-0.743s0.831-0.322 1.408-0.322c0.693 0 1.215 0.122 1.566 0.367 0.351 0.241 0.562 0.539 0.633 0.894 0.071 0.352 0.106 1.078 0.106 2.18v3.345h-1.991v-0.592c-0.125 0.238-0.287 0.417-0.486 0.537-0.196 0.117-0.43 0.176-0.704 0.176-0.003 0-0.007 0-0.010 0-0.365 0-0.703-0.111-0.984-0.3l0.006 0.004c-0.297-0.201-0.446-0.638-0.446-1.311v-0.548c0-0.499 0.079-0.839 0.238-1.019s0.552-0.392 1.181-0.633c0.672-0.261 1.032-0.437 1.079-0.527s0.071-0.274 0.071-0.553c0-0.348-0.027-0.574-0.081-0.678-0.051-0.107-0.137-0.161-0.258-0.161-0.139 0-0.225 0.045-0.258 0.136-0.034 0.087-0.051 0.316-0.051 0.688v0.698zM8.152 17.917c-0.328 0.238-0.519 0.437-0.573 0.598-0.051 0.161-0.076 0.392-0.076 0.693 0 0.345 0.022 0.567 0.066 0.668 0.047 0.1 0.139 0.151 0.273 0.151 0.129 0 0.212-0.039 0.249-0.116 0.041-0.080 0.061-0.288 0.061-0.623v-1.371zM12.949 14.422l-0.081 0.874c0.297-0.626 0.728-0.958 1.292-0.995v2.346c-0.375 0-0.65 0.050-0.826 0.151s-0.284 0.241-0.324 0.421c-0.041 0.178-0.061 0.589-0.061 1.236v2.632h-2.047v-6.665h2.047zM16.668 12.955v1.924c0.169-0.194 0.356-0.338 0.562-0.432 0.195-0.092 0.424-0.146 0.666-0.146 0.005 0 0.009 0 0.014 0h-0.001c0.281 0 0.524 0.044 0.73 0.131s0.363 0.209 0.471 0.367c0.108 0.157 0.172 0.311 0.192 0.462 0.023 0.151 0.035 0.472 0.035 0.964v3.004c0 0.489-0.034 0.854-0.101 1.095-0.064 0.238-0.218 0.445-0.46 0.623-0.244 0.174-0.532 0.261-0.866 0.261-0.24 0-0.464-0.052-0.674-0.156-0.206-0.103-0.395-0.259-0.567-0.467l-0.132 0.502h-1.915v-8.131h2.047zM17.291 16.315c0-0.345-0.022-0.569-0.066-0.673-0.044-0.107-0.13-0.161-0.258-0.161-0.125 0-0.206 0.047-0.243 0.14-0.037 0.091-0.056 0.322-0.056 0.693v2.873c0 0.359 0.020 0.588 0.061 0.688 0.044 0.1 0.128 0.151 0.253 0.151 0.128 0 0.211-0.052 0.248-0.156 0.041-0.103 0.061-0.353 0.061-0.748v-2.808zM34.897 14.422l-0.081 0.874c0.297-0.626 0.728-0.958 1.292-0.995v2.346c-0.375 0-0.65 0.050-0.825 0.151s-0.284 0.241-0.324 0.421c-0.041 0.178-0.061 0.589-0.061 1.236v2.632h-2.047v-6.665h2.047z"></path>
<path fill="#ff4300" style="fill: var(--color3, #ff4300)" d="M31.746 7.196c-0.277 0.273-0.529 0.763-0.523 1.030 0.002 0.117 0.031 0.462 0.055 0.769 0.148 1.438-0.297 3.423-1.181 5.282-1.359 2.849-3.847 5.862-7.161 8.676-0.481 0.404-0.63 0.565-0.781 0.828-0.504 0.869-0.058 1.721 0.885 1.679 0.516-0.017 0.838-0.188 1.627-0.852 0.994-0.851 1.896-1.695 2.759-2.577l0.008-0.008c0.788-0.804 2.014-2.181 2.254-2.531l0.142-0.203-0.608-0.174c-0.614-0.172-0.709-0.238-0.606-0.416s0.244-0.178 0.866-0.005c0.347 0.098 0.653 0.165 0.682 0.15 0.077-0.037 0.434-0.494 0.422-0.533-0.006-0.020-0.311-0.132-0.682-0.24-0.666-0.209-0.768-0.277-0.666-0.455s0.225-0.175 0.97 0.024l0.744 0.199 0.194-0.3 0.201-0.298-0.74-0.207c-0.77-0.215-0.909-0.317-0.697-0.536 0.092-0.1 0.19-0.091 0.912 0.102l0.805 0.221 0.18-0.304 0.18-0.305-0.779-0.222c-0.43-0.125-0.79-0.261-0.802-0.3-0.028-0.093 0.062-0.243 0.181-0.299 0.048-0.023 0.422 0.050 0.829 0.164s0.77 0.193 0.805 0.176 0.121-0.159 0.2-0.325l0.135-0.295-0.755-0.211c-0.74-0.207-0.842-0.276-0.74-0.454s0.251-0.181 0.94 0.016c0.385 0.108 0.727 0.185 0.762 0.168 0.030-0.014 0.169-0.294 0.302-0.616 0.997-2.384 1.402-4.933 1.027-6.47-0.135-0.563-0.234-0.636-0.466-0.8-0.135-0.087-0.285-0.119-0.452-0.134-0.263-0.019-0.364 0.006-0.759 0.178-0.352 0.157-0.507 0.254-0.67 0.41zM33.086 7.233c0.25 0.066 0.297 0.11 0.354 0.297 0.177 0.588-0.54 1.268-1.154 1.096s-0.459-1.008 0.252-1.348c0.225-0.108 0.303-0.117 0.549-0.044zM23.524 23.467c0.819-0.027 0.784 0.982-0.045 1.379-0.219 0.105-0.299 0.109-0.543 0.041-0.243-0.063-0.297-0.11-0.349-0.281-0.161-0.535 0.327-1.121 0.938-1.139z"></path>
<path fill="#ff4300" style="fill: var(--color3, #ff4300)" d="M30.947 7.909c-0.056 0.195 0.077 0.345 0.253 0.3 0.226-0.058 0.373-0.246 0.326-0.403-0.052-0.172-0.177-0.207-0.384-0.107-0.101 0.048-0.173 0.122-0.194 0.211zM24.545 24.081c-0.107 0.118-0.055 0.357 0.078 0.394 0.14 0.039 0.413-0.113 0.452-0.255 0.092-0.347-0.267-0.438-0.53-0.139zM19.126 13.776c-0.070 0.080-0.052 0.187 0.224 1.121l0.304 1.031 0.561-0.246c0.467-0.202 0.581-0.239 0.652-0.193 0.060 0.035 0.074 0.081 0.047 0.161-0.030 0.087-0.137 0.153-0.596 0.382l-0.553 0.273 0.084 0.285c0.049 0.166 0.12 0.3 0.168 0.315 0.062 0.018 1.020-0.412 3.975-1.788 4.461-2.077 4.092-1.859 3.954-2.328l-0.077-0.262-2.966 1.382c-3.016 1.404-3.1 1.438-3.148 1.277-0.009-0.032 0.012-0.11 0.050-0.17 0.059-0.1 0.403-0.271 3.011-1.486l2.944-1.371-0.116-0.391c-0.134-0.456-0.107-0.662 0.124-0.921 0.135-0.157 0.254-0.223 1.263-0.693l1.114-0.519 0.003-0.2c0-0.011 0-0.025 0-0.038 0-0.126-0.006-0.25-0.018-0.373l0.001 0.016c-0.012-0.090-0.021-0.2-0.025-0.311l-0-0.007-0.008-0.112-5.442 2.534c-3.599 1.681-5.475 2.571-5.532 2.634z"></path>
</symbol>
<symbol id="icon-trimmer" viewBox="0 0 32 32">
<path fill="#ec4015" style="fill: var(--color4, #ec4015)" d="M9.825 0.188c-0.038 0.112-0.075 1.288-0.075 2.612 0 2.775 0.1 3.288 0.875 4.3l0.5 0.65-0.075 5.788c-0.075 5.575-0.088 5.812-0.388 6.962-0.588 2.325-0.512 4.7 0.225 6.925 0.75 2.237 1.575 3.387 2.938 4.088 0.813 0.4 0.912 0.425 2.162 0.425 1.163 0 1.412-0.038 2.013-0.325 0.95-0.45 1.55-1 2.125-1.975 1.562-2.638 2.012-6.038 1.188-9.175-0.262-1-0.313-1.5-0.313-2.875 0-0.9-0.050-1.713-0.1-1.787-0.188-0.275-0.525-0.3-0.788-0.038-0.225 0.225-0.238 0.35-0.162 1.363l0.087 1.125h-8.075l0.075-1.088c0.050-0.612 0.088-2.075 0.088-3.275v-2.175l0.387 0.525c0.3 0.425 0.438 0.525 0.7 0.488 0.575-0.063 0.625-0.375 0.188-1.050-0.213-0.337-0.588-1.088-0.825-1.65-0.437-1.025-0.45-1.088-0.45-2.713 0-0.925 0.050-1.813 0.125-1.987l0.125-0.325h7.25l0.125 0.325c0.075 0.175 0.125 1.063 0.125 1.987v1.675l-0.512 1.175c-0.275 0.638-0.675 1.375-0.875 1.638-0.688 0.825-1.988 1.287-3.062 1.088-0.713-0.138-1.050 0-1.050 0.412 0 0.512 0.313 0.638 1.613 0.638 1.075 0 1.275-0.038 1.887-0.35 0.763-0.387 1.4-0.95 1.763-1.525l0.237-0.375v1.275c0 0.988 0.038 1.313 0.2 1.463 0.25 0.25 0.475 0.25 0.738 0 0.175-0.188 0.188-0.55 0.113-3.412l-0.087-3.213 0.525-0.675c0.788-1.050 0.888-1.538 0.888-4.362 0-1.35-0.050-2.525-0.113-2.612-0.063-0.1-0.263-0.15-0.463-0.125-0.362 0.038-0.362 0.050-0.4 0.938l-0.037 0.913h-0.975l-0.037-0.912-0.038-0.9h-0.875l-0.038 0.9-0.037 0.912h-0.85l-0.038-0.912-0.037-0.9h-0.875l-0.038 0.9-0.038 0.912h-0.862v-0.788c0-0.938-0.1-1.125-0.575-1.063-0.363 0.038-0.363 0.050-0.4 0.938l-0.038 0.913h-0.862v-0.788c0-0.85-0.125-1.087-0.588-1.087-0.375 0-0.538 0.35-0.538 1.175 0 0.7 0 0.7-0.375 0.7h-0.375v-0.788c0-0.838-0.125-1.087-0.562-1.087s-0.562 0.25-0.562 1.087v0.788h-0.863l-0.037-0.912-0.038-0.9-0.387-0.037c-0.275-0.025-0.412 0.025-0.475 0.163zM21.212 4.175c-0.038 0.65-0.125 1.288-0.2 1.413-0.113 0.188-0.125 0.175-0.138-0.162 0-0.537-0.488-1.213-1-1.388-0.6-0.212-7.15-0.212-7.75 0-0.512 0.175-1 0.85-1 1.388-0.012 0.338-0.025 0.35-0.138 0.162-0.075-0.125-0.162-0.763-0.2-1.412l-0.075-1.175h10.575l-0.075 1.175zM20.162 20.212c0.138 0.537 0.288 1.225 0.363 1.537 0.113 0.575 0.162 3.35 0.062 3.463-0.037 0.038-0.162-0.125-0.288-0.363-0.587-1.137-1.688-2.037-2.988-2.412-0.813-0.238-2.275-0.2-3.038 0.062-0.475 0.175-0.662 0.662-0.362 0.962 0.162 0.175 0.275 0.163 1.038-0.025 1.388-0.35 2.762 0.025 3.725 1.025 0.663 0.7 1.475 2.25 1.4 2.688-0.113 0.588-0.975 2.2-1.437 2.688l-0.45 0.475-0.062-1c-0.087-1.113-0.188-1.387-0.75-1.862-0.775-0.65-1.762-0.7-2.637-0.138-0.625 0.4-0.863 0.975-0.863 2.050 0 0.838-0.012 0.888-0.237 0.775-0.35-0.188-1.088-1.363-1.5-2.388l-0.35-0.887 0.512-0.962c0.287-0.525 0.625-1.113 0.75-1.3 0.275-0.413 0.1-0.85-0.35-0.85-0.338 0-0.562 0.225-1 1l-0.325 0.563-0.025-0.75c-0.038-1.45 0.037-2.262 0.375-3.788l0.337-1.525h7.875l0.225 0.962zM16.525 28.138c0.375 0.2 0.6 0.887 0.6 1.85v0.875l-0.563 0.087c-0.312 0.038-0.813 0.038-1.125 0l-0.563-0.087v-1.050c0-0.938 0.038-1.087 0.325-1.425 0.35-0.413 0.838-0.512 1.325-0.25z"></path>
</symbol>
<symbol id="icon-arrow-bottom" viewBox="0 0 32 32">
<path fill="none" stroke="#d9d9d9" style="stroke: var(--color5, #d9d9d9)" stroke-linejoin="miter" stroke-linecap="round" stroke-miterlimit="4" stroke-width="2.4" d="M27.2 11.2l-9.951 8.529c-0.719 0.616-1.78 0.616-2.499 0l-9.95-8.529"></path>
</symbol>
<symbol id="icon-arrow-left" viewBox="0 0 20 32">
<path d="M20 27.4286L7.5 16L20 4.57143L17.5 0L0 16L17.5 32L20 27.4286Z"/>
</symbol>
<symbol id="icon-arrow-long-left" viewBox="0 0 98 16">
<path d="M0.792892 7.29289C0.402367 7.68342 0.402367 8.31658 0.792892 8.70711L7.15685 15.0711C7.54738 15.4616 8.18054 15.4616 8.57107 15.0711C8.96159 14.6805 8.96159 14.0474 8.57107 13.6569L2.91422 8L8.57107 2.34315C8.96159 1.95262 8.96159 1.31946 8.57107 0.928932C8.18054 0.538408 7.54738 0.538408 7.15685 0.928932L0.792892 7.29289ZM97.5 7L1.5 7V9L97.5 9V7Z"/>
</symbol>
<symbol id="icon-arrow-long-right" viewBox="0 0 98 16">
<path d="M97.2071 8.70711C97.5976 8.31658 97.5976 7.68342 97.2071 7.29289L90.8432 0.928932C90.4526 0.538408 89.8195 0.538408 89.4289 0.928932C89.0384 1.31946 89.0384 1.95262 89.4289 2.34315L95.0858 8L89.4289 13.6569C89.0384 14.0474 89.0384 14.6805 89.4289 15.0711C89.8195 15.4616 90.4526 15.4616 90.8432 15.0711L97.2071 8.70711ZM0.5 9L96.5 9V7L0.5 7L0.5 9Z"/>
</symbol>
<symbol id="icon-arrow-right" viewBox="0 0 20 32">
<path d="M0 4.57143L12.5 16L0 27.4286L2.5 32L20 16L2.5 0L0 4.57143Z"/>
</symbol>
<symbol id="icon-arrow-top" viewBox="0 0 32 32">
<path fill="none" stroke="#f24e1e" style="stroke: var(--color6, #f24e1e)" stroke-linejoin="miter" stroke-linecap="round" stroke-miterlimit="4" stroke-width="2.4" d="M4.8 20.8l9.95-8.529c0.719-0.616 1.78-0.616 2.499 0l9.951 8.529"></path>
</symbol>
<symbol id="icon-burger" viewBox="0 0 32 32">
<path fill="#fff" style="fill: var(--color8, #fff)" d="M4 10.667v-2.667h24v2.667h-24zM4 17.334h24v-2.667h-24v2.667zM4 24h24v-2.667h-24v2.667z"></path>
</symbol>
<symbol id="icon-calendar" viewBox="0 0 32 32">
<path fill="#7b7b7b" style="fill: var(--color9, #7b7b7b)" d="M22 13.003c0-0.265 0.105-0.52 0.293-0.707s0.442-0.293 0.707-0.293h2c0.265 0 0.52 0.105 0.707 0.293s0.293 0.442 0.293 0.707v2c0 0.265-0.105 0.52-0.293 0.707s-0.442 0.293-0.707 0.293h-2c-0.265 0-0.52-0.105-0.707-0.293s-0.293-0.442-0.293-0.707v-2zM16 13.003c0-0.265 0.105-0.52 0.293-0.707s0.442-0.293 0.707-0.293h2c0.265 0 0.52 0.105 0.707 0.293s0.293 0.442 0.293 0.707v2c0 0.265-0.105 0.52-0.293 0.707s-0.442 0.293-0.707 0.293h-2c-0.265 0-0.52-0.105-0.707-0.293s-0.293-0.442-0.293-0.707v-2zM6 19.003c0-0.265 0.105-0.52 0.293-0.707s0.442-0.293 0.707-0.293h2c0.265 0 0.52 0.105 0.707 0.293s0.293 0.442 0.293 0.707v2c0 0.265-0.105 0.52-0.293 0.707s-0.442 0.293-0.707 0.293h-2c-0.265 0-0.52-0.105-0.707-0.293s-0.293-0.442-0.293-0.707v-2zM12 19.003c0-0.265 0.105-0.52 0.293-0.707s0.442-0.293 0.707-0.293h2c0.265 0 0.52 0.105 0.707 0.293s0.293 0.442 0.293 0.707v2c0 0.265-0.105 0.52-0.293 0.707s-0.442 0.293-0.707 0.293h-2c-0.265 0-0.52-0.105-0.707-0.293s-0.293-0.442-0.293-0.707v-2z"></path>
<path fill="#7b7b7b" style="fill: var(--color9, #7b7b7b)" d="M7 0.003c0.265 0 0.52 0.105 0.707 0.293s0.293 0.442 0.293 0.707v1h16v-1c0-0.265 0.105-0.52 0.293-0.707s0.442-0.293 0.707-0.293 0.52 0.105 0.707 0.293c0.188 0.188 0.293 0.442 0.293 0.707v1h2c1.061 0 2.078 0.421 2.828 1.172s1.172 1.768 1.172 2.828v22c0 1.061-0.421 2.078-1.172 2.828s-1.768 1.172-2.828 1.172h-24c-1.061 0-2.078-0.421-2.828-1.172s-1.172-1.768-1.172-2.828v-22c0-1.061 0.421-2.078 1.172-2.828s1.768-1.172 2.828-1.172h2v-1c0-0.265 0.105-0.52 0.293-0.707s0.442-0.293 0.707-0.293zM2 8.003v20c0 0.53 0.211 1.039 0.586 1.414s0.884 0.586 1.414 0.586h24c0.53 0 1.039-0.211 1.414-0.586s0.586-0.884 0.586-1.414v-20h-28z"></path>
</symbol>
<symbol id="icon-click" viewBox="0 0 32 32">
<path fill="none" stroke="#d9d9d9" style="stroke: var(--color5, #d9d9d9)" stroke-linejoin="round" stroke-linecap="round" stroke-miterlimit="4" stroke-width="3.2" d="M4 16h4M16 4v4M10.4 10.4l-2.933-2.933M21.6 10.4l2.933-2.933M10.4 21.6l-2.933 2.933M16 16l12 4-5.333 2.667-2.667 5.333-4-12z"></path>
</symbol>
<symbol id="icon-close" viewBox="0 0 32 32">
<path d="M16 2c-7.8 0-14 6.2-14 14s6.2 14 14 14c7.8 0 14-6.2 14-14s-6.2-14-14-14zM16 28c-6.6 0-12-5.4-12-12s5.4-12 12-12c6.6 0 12 5.4 12 12s-5.4 12-12 12z"></path>
<path d="M21.4 23l-5.4-5.4-5.4 5.4-1.6-1.6 5.4-5.4-5.4-5.4 1.6-1.6 5.4 5.4 5.4-5.4 1.6 1.6-5.4 5.4 5.4 5.4-1.6 1.6z"></path>
</symbol>
<symbol id="icon-dots" viewBox="0 0 32 32">
<path fill="#f24e1e" style="fill: var(--color6, #f24e1e)" d="M3.765 1.882c0 1.040-0.843 1.882-1.882 1.882s-1.882-0.843-1.882-1.882c0-1.040 0.843-1.882 1.882-1.882s1.882 0.843 1.882 1.882z"></path>
<path fill="#f24e1e" style="fill: var(--color6, #f24e1e)" d="M9.412 1.882c0 1.040-0.843 1.882-1.882 1.882s-1.882-0.843-1.882-1.882c0-1.040 0.843-1.882 1.882-1.882s1.882 0.843 1.882 1.882z"></path>
<path fill="#f24e1e" style="fill: var(--color6, #f24e1e)" d="M15.059 1.882c0 1.040-0.843 1.882-1.882 1.882s-1.882-0.843-1.882-1.882c0-1.040 0.843-1.882 1.882-1.882s1.882 0.843 1.882 1.882z"></path>
<path fill="#f24e1e" style="fill: var(--color6, #f24e1e)" d="M20.706 1.882c0 1.040-0.843 1.882-1.882 1.882s-1.882-0.843-1.882-1.882c0-1.040 0.843-1.882 1.882-1.882s1.882 0.843 1.882 1.882z"></path>
<path fill="#f24e1e" style="fill: var(--color6, #f24e1e)" d="M26.353 1.882c0 1.040-0.843 1.882-1.882 1.882s-1.882-0.843-1.882-1.882c0-1.040 0.843-1.882 1.882-1.882s1.882 0.843 1.882 1.882z"></path>
<path fill="#f24e1e" style="fill: var(--color6, #f24e1e)" d="M32 1.882c0 1.040-0.843 1.882-1.882 1.882s-1.882-0.843-1.882-1.882c0-1.040 0.843-1.882 1.882-1.882s1.882 0.843 1.882 1.882z"></path>
<path fill="#f24e1e" style="fill: var(--color6, #f24e1e)" d="M3.765 7.529c0 1.040-0.843 1.882-1.882 1.882s-1.882-0.843-1.882-1.882c0-1.040 0.843-1.882 1.882-1.882s1.882 0.843 1.882 1.882z"></path>
<path fill="#f24e1e" style="fill: var(--color6, #f24e1e)" d="M9.412 7.529c0 1.040-0.843 1.882-1.882 1.882s-1.882-0.843-1.882-1.882c0-1.040 0.843-1.882 1.882-1.882s1.882 0.843 1.882 1.882z"></path>
<path fill="#f24e1e" style="fill: var(--color6, #f24e1e)" d="M15.059 7.529c0 1.040-0.843 1.882-1.882 1.882s-1.882-0.843-1.882-1.882c0-1.040 0.843-1.882 1.882-1.882s1.882 0.843 1.882 1.882z"></path>
<path fill="#f24e1e" style="fill: var(--color6, #f24e1e)" d="M20.706 7.529c0 1.040-0.843 1.882-1.882 1.882s-1.882-0.843-1.882-1.882c0-1.040 0.843-1.882 1.882-1.882s1.882 0.843 1.882 1.882z"></path>
<path fill="#f24e1e" style="fill: var(--color6, #f24e1e)" d="M26.353 7.529c0 1.040-0.843 1.882-1.882 1.882s-1.882-0.843-1.882-1.882c0-1.040 0.843-1.882 1.882-1.882s1.882 0.843 1.882 1.882z"></path>
<path fill="#f24e1e" style="fill: var(--color6, #f24e1e)" d="M32 7.529c0 1.040-0.843 1.882-1.882 1.882s-1.882-0.843-1.882-1.882c0-1.040 0.843-1.882 1.882-1.882s1.882 0.843 1.882 1.882z"></path>
<path fill="#f24e1e" style="fill: var(--color6, #f24e1e)" d="M3.765 13.176c0 1.040-0.843 1.882-1.882 1.882s-1.882-0.843-1.882-1.882c0-1.040 0.843-1.882 1.882-1.882s1.882 0.843 1.882 1.882z"></path>
<path fill="#f24e1e" style="fill: var(--color6, #f24e1e)" d="M9.412 13.176c0 1.040-0.843 1.882-1.882 1.882s-1.882-0.843-1.882-1.882c0-1.040 0.843-1.882 1.882-1.882s1.882 0.843 1.882 1.882z"></path>
<path fill="#f24e1e" style="fill: var(--color6, #f24e1e)" d="M15.059 13.176c0 1.040-0.843 1.882-1.882 1.882s-1.882-0.843-1.882-1.882c0-1.040 0.843-1.882 1.882-1.882s1.882 0.843 1.882 1.882z"></path>
<path fill="#f24e1e" style="fill: var(--color6, #f24e1e)" d="M20.706 13.176c0 1.040-0.843 1.882-1.882 1.882s-1.882-0.843-1.882-1.882c0-1.040 0.843-1.882 1.882-1.882s1.882 0.843 1.882 1.882z"></path>
<path fill="#f24e1e" style="fill: var(--color6, #f24e1e)" d="M26.353 13.176c0 1.040-0.843 1.882-1.882 1.882s-1.882-0.843-1.882-1.882c0-1.040 0.843-1.882 1.882-1.882s1.882 0.843 1.882 1.882z"></path>
<path fill="#f24e1e" style="fill: var(--color6, #f24e1e)" d="M32 13.176c0 1.040-0.843 1.882-1.882 1.882s-1.882-0.843-1.882-1.882c0-1.040 0.843-1.882 1.882-1.882s1.882 0.843 1.882 1.882z"></path>
<path fill="#f24e1e" style="fill: var(--color6, #f24e1e)" d="M3.765 18.824c0 1.040-0.843 1.882-1.882 1.882s-1.882-0.843-1.882-1.882c0-1.040 0.843-1.882 1.882-1.882s1.882 0.843 1.882 1.882z"></path>
<path fill="#f24e1e" style="fill: var(--color6, #f24e1e)" d="M9.412 18.824c0 1.040-0.843 1.882-1.882 1.882s-1.882-0.843-1.882-1.882c0-1.040 0.843-1.882 1.882-1.882s1.882 0.843 1.882 1.882z"></path>
<path fill="#f24e1e" style="fill: var(--color6, #f24e1e)" d="M15.059 18.824c0 1.040-0.843 1.882-1.882 1.882s-1.882-0.843-1.882-1.882c0-1.040 0.843-1.882 1.882-1.882s1.882 0.843 1.882 1.882z"></path>
<path fill="#f24e1e" style="fill: var(--color6, #f24e1e)" d="M20.706 18.824c0 1.040-0.843 1.882-1.882 1.882s-1.882-0.843-1.882-1.882c0-1.040 0.843-1.882 1.882-1.882s1.882 0.843 1.882 1.882z"></path>
<path fill="#f24e1e" style="fill: var(--color6, #f24e1e)" d="M26.353 18.824c0 1.040-0.843 1.882-1.882 1.882s-1.882-0.843-1.882-1.882c0-1.040 0.843-1.882 1.882-1.882s1.882 0.843 1.882 1.882z"></path>
<path fill="#f24e1e" style="fill: var(--color6, #f24e1e)" d="M32 18.824c0 1.040-0.843 1.882-1.882 1.882s-1.882-0.843-1.882-1.882c0-1.040 0.843-1.882 1.882-1.882s1.882 0.843 1.882 1.882z"></path>
<path fill="#f24e1e" style="fill: var(--color6, #f24e1e)" d="M3.765 24.471c0 1.040-0.843 1.882-1.882 1.882s-1.882-0.843-1.882-1.882c0-1.040 0.843-1.882 1.882-1.882s1.882 0.843 1.882 1.882z"></path>
<path fill="#f24e1e" style="fill: var(--color6, #f24e1e)" d="M9.412 24.471c0 1.040-0.843 1.882-1.882 1.882s-1.882-0.843-1.882-1.882c0-1.040 0.843-1.882 1.882-1.882s1.882 0.843 1.882 1.882z"></path>
<path fill="#f24e1e" style="fill: var(--color6, #f24e1e)" d="M15.059 24.471c0 1.040-0.843 1.882-1.882 1.882s-1.882-0.843-1.882-1.882c0-1.040 0.843-1.882 1.882-1.882s1.882 0.843 1.882 1.882z"></path>
<path fill="#f24e1e" style="fill: var(--color6, #f24e1e)" d="M20.706 24.471c0 1.040-0.843 1.882-1.882 1.882s-1.882-0.843-1.882-1.882c0-1.040 0.843-1.882 1.882-1.882s1.882 0.843 1.882 1.882z"></path>
<path fill="#f24e1e" style="fill: var(--color6, #f24e1e)" d="M26.353 24.471c0 1.040-0.843 1.882-1.882 1.882s-1.882-0.843-1.882-1.882c0-1.040 0.843-1.882 1.882-1.882s1.882 0.843 1.882 1.882z"></path>
<path fill="#f24e1e" style="fill: var(--color6, #f24e1e)" d="M32 24.471c0 1.040-0.843 1.882-1.882 1.882s-1.882-0.843-1.882-1.882c0-1.040 0.843-1.882 1.882-1.882s1.882 0.843 1.882 1.882z"></path>
<path fill="#f24e1e" style="fill: var(--color6, #f24e1e)" d="M3.765 30.118c0 1.040-0.843 1.882-1.882 1.882s-1.882-0.843-1.882-1.882c0-1.040 0.843-1.882 1.882-1.882s1.882 0.843 1.882 1.882z"></path>
<path fill="#f24e1e" style="fill: var(--color6, #f24e1e)" d="M9.412 30.118c0 1.040-0.843 1.882-1.882 1.882s-1.882-0.843-1.882-1.882c0-1.040 0.843-1.882 1.882-1.882s1.882 0.843 1.882 1.882z"></path>
<path fill="#f24e1e" style="fill: var(--color6, #f24e1e)" d="M15.059 30.118c0 1.040-0.843 1.882-1.882 1.882s-1.882-0.843-1.882-1.882c0-1.040 0.843-1.882 1.882-1.882s1.882 0.843 1.882 1.882z"></path>
<path fill="#f24e1e" style="fill: var(--color6, #f24e1e)" d="M20.706 30.118c0 1.040-0.843 1.882-1.882 1.882s-1.882-0.843-1.882-1.882c0-1.040 0.843-1.882 1.882-1.882s1.882 0.843 1.882 1.882z"></path>
<path fill="#f24e1e" style="fill: var(--color6, #f24e1e)" d="M26.353 30.118c0 1.040-0.843 1.882-1.882 1.882s-1.882-0.843-1.882-1.882c0-1.040 0.843-1.882 1.882-1.882s1.882 0.843 1.882 1.882z"></path>
<path fill="#f24e1e" style="fill: var(--color6, #f24e1e)" d="M32 30.118c0 1.040-0.843 1.882-1.882 1.882s-1.882-0.843-1.882-1.882c0-1.040 0.843-1.882 1.882-1.882s1.882 0.843 1.882 1.882z"></path>
</symbol>
<symbol id="icon-location" viewBox="0 0 32 32">
<path fill="#d9d9d9" style="fill: var(--color5, #d9d9d9)" d="M16 15.332c-0.884 0-1.732-0.351-2.357-0.976s-0.976-1.473-0.976-2.357c0-0.884 0.351-1.732 0.976-2.357s1.473-0.976 2.357-0.976c0.884 0 1.732 0.351 2.357 0.976s0.976 1.473 0.976 2.357c0 0.438-0.086 0.871-0.254 1.276s-0.413 0.772-0.723 1.081c-0.31 0.31-0.677 0.555-1.081 0.723s-0.838 0.254-1.276 0.254zM16 2.666c-2.475 0-4.849 0.983-6.6 2.734s-2.734 4.124-2.734 6.6c0 7 9.333 17.333 9.333 17.333s9.333-10.333 9.333-17.333c0-2.475-0.983-4.849-2.734-6.6s-4.124-2.734-6.6-2.734z"></path>
</symbol>
<symbol id="icon-people" viewBox="0 0 32 32">
<path fill="#f24e1e" style="fill: var(--color6, #f24e1e)" d="M22.227 17.506c1.827 1.24 3.107 2.92 3.107 5.16v4h5.333v-4c0-2.907-4.76-4.627-8.44-5.16z"></path>
<path fill="#f24e1e" style="fill: var(--color6, #f24e1e)" d="M12.001 16.001c2.946 0 5.333-2.388 5.333-5.333s-2.388-5.333-5.333-5.333c-2.946 0-5.333 2.388-5.333 5.333s2.388 5.333 5.333 5.333z"></path>
<path fill="#f24e1e" style="fill: var(--color6, #f24e1e)" d="M20 16.001c2.947 0 5.333-2.387 5.333-5.333s-2.387-5.333-5.333-5.333c-0.627 0-1.213 0.133-1.773 0.32 1.147 1.419 1.773 3.189 1.773 5.013s-0.626 3.594-1.773 5.013c0.56 0.187 1.147 0.32 1.773 0.32zM11.999 17.334c-3.56 0-10.667 1.787-10.667 5.333v4h21.333v-4c0-3.547-7.107-5.333-10.667-5.333z"></path>
</symbol>
<symbol id="icon-people-search" viewBox="0 0 32 32">
<path fill="#d9d9d9" style="fill: var(--color5, #d9d9d9)" d="M15.88 18.668h10.457c0.796 0 1.559 0.316 2.121 0.879s0.879 1.326 0.879 2.121v1.207c0 0.72-0.156 1.432-0.456 2.087s-0.74 1.237-1.286 1.706c-2.088 1.793-5.075 2.669-8.928 2.669h-0.239c0.201-0.405 0.28-0.859 0.228-1.308s-0.234-0.873-0.522-1.221l-0.148-0.161-2.973-2.965c0.88-1.513 1.189-3.292 0.868-5.013zM8.666 14.002c1.14 0 2.256 0.325 3.218 0.936s1.73 1.484 2.214 2.516c0.484 1.032 0.664 2.18 0.519 3.311s-0.609 2.196-1.338 3.073l3.764 3.752c0.178 0.179 0.282 0.417 0.291 0.669s-0.077 0.498-0.241 0.688c-0.164 0.191-0.394 0.313-0.645 0.342s-0.502-0.038-0.705-0.187l-0.113-0.096-3.871-3.861c-0.793 0.476-1.684 0.763-2.606 0.838s-1.848-0.065-2.707-0.407c-0.859-0.342-1.627-0.879-2.244-1.567s-1.067-1.51-1.315-2.401c-0.247-0.891-0.285-1.827-0.111-2.735s0.556-1.764 1.115-2.5c0.559-0.736 1.281-1.333 2.11-1.744s1.74-0.625 2.665-0.626zM8.666 16.002c-1.061 0-2.078 0.421-2.828 1.172s-1.172 1.768-1.172 2.828c0 1.061 0.421 2.078 1.172 2.828s1.768 1.172 2.828 1.172c1.061 0 2.078-0.421 2.828-1.172s1.172-1.768 1.172-2.828c0-1.061-0.421-2.078-1.172-2.828s-1.768-1.172-2.828-1.172zM18.666 2.675c0.876-0 1.742 0.172 2.551 0.507s1.544 0.826 2.163 1.445c0.619 0.619 1.11 1.354 1.445 2.163s0.507 1.676 0.507 2.551c0 0.876-0.172 1.742-0.507 2.551s-0.826 1.544-1.445 2.163c-0.619 0.619-1.354 1.11-2.163 1.445s-1.676 0.507-2.551 0.507c-1.768 0-3.464-0.702-4.714-1.953s-1.953-2.946-1.953-4.714c0-1.768 0.702-3.464 1.953-4.714s2.946-1.953 4.714-1.953z"></path>
</symbol>
<symbol id="icon-phone" viewBox="0 0 32 32">
<path fill="#d9d9d9" style="fill: var(--color5, #d9d9d9)" d="M17.067 14.662v-8h2.667v3.467l6.667-6.667 1.867 1.867-6.667 6.667h3.467v2.667h-8zM26.6 27.996c-2.867 0-5.661-0.633-8.383-1.9s-5.134-2.956-7.233-5.067c-2.1-2.111-3.789-4.528-5.067-7.251s-1.917-5.516-1.917-8.383v-0.7c0-0.244 0.022-0.478 0.067-0.7h7.8l1.233 6.7-3.8 3.833c0.933 1.6 2.106 3.1 3.517 4.5s2.96 2.611 4.649 3.633l3.867-3.867 6.667 1.333v7.8c-0.222 0.022-0.456 0.039-0.7 0.051s-0.478 0.016-0.7 0.016z"></path>
</symbol>
<symbol id="icon-player" viewBox="0 0 32 32">
<path fill="none" stroke-linejoin="round" stroke-linecap="round" stroke-miterlimit="4" stroke-width="1" d="M28.603 22.832c-1.519 2.802-3.929 5.018-6.849 6.296s-6.182 1.548-9.272 0.765c-3.090-0.783-5.83-2.574-7.789-5.089s-3.022-5.611-3.024-8.799 1.059-6.285 3.015-8.801c1.956-2.517 4.695-4.31 7.784-5.096s6.352-0.52 9.273 0.756c2.921 1.276 5.333 3.489 6.855 6.29"></path>
<path stroke-linejoin="round" stroke-linecap="round" stroke-miterlimit="4" stroke-width="1" d="M21.8 16l-8.667-5.007v10.013l8.667-5.007z"></path>
<path fill="none" stroke-linejoin="round" stroke-linecap="round" stroke-miterlimit="4" stroke-width="1" d="M28.603 14.78c0.826 0 1.495-0.669 1.495-1.495s-0.669-1.495-1.495-1.495c-0.826 0-1.495 0.669-1.495 1.495s0.669 1.495 1.495 1.495z"></path>
</symbol>
<symbol id="icon-scissors" viewBox="0 0 32 32">
<path fill="#f24e1e" style="fill: var(--color6, #f24e1e)" d="M3.275 0.25c-0.575 0.537-0.525 0.7 0.975 3.663 0.775 1.525 1.5 2.875 1.6 2.988 0.275 0.325 0.612 0.275 0.862-0.1 0.213-0.325 0.2-0.35-0.7-2.1-0.513-0.962-0.862-1.712-0.8-1.638 0.075 0.063 1.862 2.462 3.987 5.312 10.45 14.012 10.575 14.188 10.988 14.188 0.288 0 0.4-0.075 0.488-0.337 0.1-0.3-0.037-0.538-1.65-2.725-0.975-1.313-1.775-2.45-1.775-2.525s1.775-3.65 3.938-7.95c2.162-4.288 3.938-7.938 3.938-8.088 0-0.5-0.463-0.938-0.988-0.938-0.563 0-0.7 0.1-1.4 1.063-0.488 0.688-1.638 2.237-3.863 5.25-0.45 0.612-1.325 1.8-1.937 2.625s-1.512 2.037-2 2.7l-0.888 1.2-4.437-5.938c-2.438-3.275-4.612-6.162-4.85-6.425-0.487-0.55-1.038-0.637-1.487-0.225zM19.688 9.338c-1.775 3.5-3.25 6.388-3.3 6.437-0.125 0.138-1.525-1.8-1.45-2 0.037-0.088 0.887-1.287 1.9-2.662 1.025-1.375 2.212-3 2.662-3.612 2.65-3.612 3.3-4.5 3.35-4.5 0.025 0-1.4 2.85-3.162 6.338z"></path>
<path fill="#f24e1e" style="fill: var(--color6, #f24e1e)" d="M6.775 8.025c-0.175 0.175-0.2 0.625-0.037 0.787 0.050 0.075 1.025 1.95 2.163 4.188l2.062 4.062-1.138 1.525c-0.625 0.838-1.612 2.162-2.188 2.95l-1.050 1.437-1.2 0.050c-0.925 0.025-1.325 0.1-1.763 0.313-0.813 0.4-1.6 1.212-1.988 2.025-0.438 0.938-0.463 2.638-0.050 3.538 0.375 0.825 1.2 1.662 2.025 2.062 0.6 0.288 0.862 0.338 1.825 0.35 1.338 0 2.063-0.275 2.912-1.1s1.188-1.575 1.25-2.838c0.050-0.925 0.012-1.162-0.263-1.837l-0.313-0.775 1.525-1.725c0.825-0.95 1.963-2.263 2.5-2.9l1-1.15 0.313 0.35c0.188 0.188 1.325 1.5 2.55 2.9l2.237 2.537-0.3 0.65c-0.425 0.95-0.413 2.5 0.038 3.45 0.425 0.9 1.212 1.7 2.087 2.1 0.587 0.263 0.9 0.325 1.712 0.325 0.625-0.012 1.175-0.087 1.45-0.2 0.438-0.188 0.475-0.188 1.188 0.162 1.050 0.512 2.063 0.738 3.338 0.738 0.9 0 1.175-0.050 1.462-0.25 1.075-0.762 0.65-2.612-0.65-2.8-2.725-0.388-2.662-0.363-2.638-0.7 0.113-1.35 0.038-2.163-0.262-2.813-0.413-0.913-1.2-1.738-2.062-2.15-0.588-0.288-0.863-0.338-1.763-0.338-1.375 0-1.813 0.188-1.813 0.8v0.438l1.2-0.050c1-0.025 1.3 0 1.75 0.212 1.775 0.788 2.375 2.863 1.313 4.475-0.887 1.362-2.963 1.712-4.3 0.712-1.263-0.938-1.575-2.813-0.7-4.1 0.162-0.25 0.3-0.563 0.3-0.7 0-0.225-3.863-4.763-5.65-6.65l-0.462-0.5-1.713 0.175-1.8-3.537c-3.275-6.438-3.188-6.287-3.588-6.325-0.188-0.025-0.425 0.038-0.513 0.125zM12.15 18.85c0.35 0.088 0.35 0.1 0.138 0.338-0.125 0.138-0.963 1.087-1.85 2.125-0.887 1.025-1.887 2.175-2.213 2.537-0.325 0.375-0.6 0.75-0.6 0.85s0.175 0.475 0.375 0.85c0.912 1.6 0.45 3.4-1.075 4.225-0.875 0.463-1.425 0.525-2.275 0.288-1.5-0.437-2.487-2.037-2.163-3.512 0.212-0.912 0.837-1.7 1.7-2.125 0.625-0.3 0.775-0.325 1.475-0.25 1.475 0.175 1.3 0.263 2.4-1.188 0.55-0.737 1.562-2.1 2.25-3.038 1.1-1.5 1.262-1.675 1.362-1.45 0.062 0.138 0.275 0.3 0.475 0.35zM27.125 29.813c0.45 0.1 1.075 0.175 1.388 0.188 0.387 0 0.688 0.087 0.875 0.238 0.262 0.212 0.275 0.262 0.113 0.45-0.15 0.188-0.325 0.212-1.125 0.15-0.9-0.075-2.625-0.512-2.625-0.675 0-0.113 0.4-0.537 0.488-0.537 0.038 0.012 0.438 0.087 0.887 0.188z"></path>
<path fill="#f24e1e" style="fill: var(--color6, #f24e1e)" d="M5.188 24.813c-0.063 0.025-0.275 0.075-0.463 0.112-0.463 0.1-1.225 0.788-1.425 1.288-0.362 0.85-0.112 2.1 0.538 2.688 0.587 0.537 1.75 0.75 2.5 0.462 0.438-0.162 1-0.688 1.25-1.15 0.262-0.525 0.225-1.588-0.075-2.188-0.312-0.612-0.8-0.975-1.525-1.137-0.588-0.138-0.6-0.138-0.8-0.075zM6.263 26.363c0.475 0.488 0.487 1 0 1.538-0.275 0.313-0.463 0.4-0.8 0.4-1.163 0-1.6-1.575-0.6-2.113 0.525-0.288 0.987-0.225 1.4 0.175z"></path>
<path fill="#f24e1e" style="fill: var(--color6, #f24e1e)" d="M21.65 25.013c-1.387 0.688-1.7 2.525-0.638 3.675 1.675 1.813 4.563 0.212 3.938-2.175-0.2-0.75-0.563-1.2-1.263-1.525-0.662-0.313-1.375-0.3-2.037 0.025zM23.55 26.388c0.188 0.212 0.325 0.538 0.325 0.738 0 0.55-0.55 1.125-1.088 1.125-0.562 0-0.862-0.175-1.112-0.637-0.4-0.775 0.162-1.613 1.075-1.613 0.375 0 0.55 0.075 0.8 0.387z"></path>
</symbol>
<symbol id="icon-shave" viewBox="0 0 32 32">
<path fill="#f24e1e" style="fill: var(--color6, #f24e1e)" d="M9.076 1.401c-0.037 0.621 0.046 0.913 0.293 1.041 0.367 0.188 0.591-0.067 0.598-0.688l0.007-0.561 11.521 0.034 0.002 1.887c-0.006 1.909-0.080 2.223-0.537 2.185-0.18-0.015-0.21-0.24-0.211-1.617-0.001-0.883-0.054-1.655-0.114-1.714-0.135-0.135-9.403-0.159-9.657-0.024-0.142 0.067-0.187 0.471-0.185 1.714-0.006 1.385-0.028 1.617-0.208 1.632-0.374 0.030-0.569-0.3-0.592-0.951-0.016-0.779-0.286-1.078-0.689-0.749-0.224 0.179-0.247 0.322-0.216 0.936 0.061 1.138 0.526 1.647 1.514 1.663 0.509 0 0.554 0.031 0.569 0.255 0.038 0.487 0.21 0.824 0.75 1.483 0.442 0.532 0.645 0.884 0.945 1.693 0.375 1.004 0.728 1.505 1.057 1.506 0.12 0 0.165 0.090 0.172 0.322 0.015 0.284-0.045 0.374-0.404 0.658l-0.411 0.322-0.008 6.678c-0.011 3.668-0.046 6.88-0.083 7.127s-0.149 0.704-0.254 1.018c-0.396 1.22-0.14 2.313 0.737 3.205 0.614 0.614 1.094 0.855 1.902 0.93 0.839 0.091 1.527-0.178 2.208-0.859l0.561-0.561-0.195-0.24c-0.232-0.292-0.419-0.27-0.816 0.126-0.411 0.396-1.062 0.628-1.684 0.59-1.46-0.099-2.262-1.38-1.822-2.929 0.104-0.374 0.231-0.951 0.283-1.272l0.104-0.584 0.382 0.128c0.524 0.195 1.595 0.219 2.201 0.062 0.284-0.075 0.531-0.112 0.569-0.074 0.030 0.030 0.075 0.195 0.090 0.374 0.083 0.621 0.526 2.187 0.669 2.329 0.082 0.082 0.262 0.098 0.419 0.045 0.352-0.127 0.359-0.314 0.081-1.37-0.128-0.457-0.256-1.108-0.301-1.438-0.038-0.337-0.078-3.474-0.097-6.977l-0.021-6.378-0.375-0.285c-0.322-0.247-0.375-0.33-0.367-0.622-0-0.195 0.067-0.337 0.127-0.322 0.322 0.083 0.621-0.336 1.114-1.549 0.403-0.988 0.583-1.317 0.919-1.654 0.434-0.434 0.733-1.017 0.755-1.459 0.007-0.232 0.052-0.247 0.576-0.276 0.299-0.015 0.681-0.112 0.838-0.209 0.591-0.381 0.658-0.673 0.671-2.904 0.005-2.104-0.002-2.126-0.332-2.456l-0.337-0.337-6.026 0.002c-6.027-0.013-6.027-0.013-6.341 0.301-0.247 0.247-0.322 0.426-0.351 0.816zM15.807 2.763l4.043 0.019-0.007 0.397 0.008 0.397-8.145-0.008-0.015-0.374c-0.008-0.202 0.007-0.382 0.037-0.412 0.022-0.022 1.864-0.036 4.080-0.018zM19.852 4.878l0.008 0.412-1.654 0.006c-1.625 0.006-1.954 0.080-1.953 0.485 0 0.269 0.21 0.434 0.547 0.412 0.269-0.015 0.285 0 0.255 0.21-0.022 0.127-0.187 0.382-0.366 0.561-0.284 0.284-0.411 0.337-0.913 0.329-0.517 0.007-0.621-0.038-0.944-0.36-0.202-0.202-0.382-0.457-0.405-0.554-0.030-0.15 0.015-0.18 0.307-0.187 0.382-0.007 0.561-0.142 0.561-0.411-0-0.389-0.33-0.479-1.947-0.481l-1.662-0.017 0.007-0.412-0-0.404 8.153 0 0.008 0.412zM13.55 6.564c0.143 0.547 0.615 1.124 1.162 1.431 1.221 0.697 2.927-0.050 3.285-1.427l0.097-0.382 1.407 0.016-0.075 0.344c-0.045 0.225-0.269 0.584-0.65 1.040-0.471 0.561-0.643 0.868-0.942 1.661l-0.358 0.988-1.699-0.009-1.699 0.006-0.36-0.989c-0.3-0.794-0.473-1.101-0.945-1.663-0.382-0.457-0.607-0.817-0.652-1.041l-0.075-0.344 1.407-0.014 0.098 0.382zM16.489 11.507l0 0.374-1.407-0.001-0.015-0.374-0.008-0.367 1.422-0.014 0.008 0.382zM17.315 13.275l0.008 0.412-0.419-0.045c-0.434-0.045-0.644 0.074-0.643 0.374 0 0.24 0.195 0.419 0.659 0.585l0.389 0.135 0.016 1.333-0.532 0.007c-0.561 0.007-0.756 0.112-0.756 0.411s0.285 0.479 0.787 0.487l0.487 0.008 0.008 0.591 0.008 0.576-0.546 0.037c-0.614 0.029-0.606 0.022-0.703 0.329-0.097 0.337 0.263 0.622 0.794 0.63l0.457 0.008-0.007 0.591-0.007 0.591-0.487 0.007c-0.502 0.007-0.786 0.186-0.786 0.486s0.218 0.427 0.757 0.413l0.517-0.007 0.008 0.636 0.008 0.636-0.532 0.007c-0.561 0.007-0.756 0.112-0.756 0.411s0.285 0.479 0.787 0.487l0.487 0.008 0.008 0.651 0.008 0.666-0.442 0.142c-0.576 0.187-1.624 0.186-2.201-0.002l-0.442-0.143 0.007-0.666 0.007-0.651 0.487-0.007c0.502-0.007 0.786-0.186 0.786-0.486s-0.195-0.404-0.757-0.413l-0.532-0.008 0.007-0.636 0.007-0.636 0.517 0.008c0.539 0.015 0.756-0.112 0.756-0.411s-0.285-0.479-0.787-0.487l-0.487-0.008-0.016-1.183 0.457-0.007c0.532-0.007 0.891-0.291 0.793-0.628-0.098-0.307-0.090-0.3-0.704-0.33l-0.547-0.038 0.007-0.576 0.007-0.591 0.487-0.007c0.502-0.007 0.786-0.186 0.786-0.486s-0.195-0.404-0.757-0.413l-0.532-0.008 0.014-1.333 0.389-0.134c0.464-0.164 0.658-0.344 0.658-0.583-0-0.299-0.247-0.442-0.659-0.375l-0.382 0.067-0.015-0.419-0.008-0.427 3.069-0.012 0.008 0.427z"></path>
</symbol>
</defs>
</svg>
