<svg width="285" height="485" viewBox="0 0 285 485" fill="none" xmlns="http://www.w3.org/2000/svg">
<path d="M241.523 39.3218C237.088 45.2306 234.145 56.3579 235.461 62.687C236.016 65.4663 238.168 73.7025 240.062 81.049C249.565 115.432 249.391 161.608 239.692 203.892C224.75 268.687 187.461 335.112 132.395 395.148C124.374 403.762 122.069 407.272 120.162 413.203C113.773 432.798 126.731 453.896 145.816 454.805C156.298 455.436 162.099 452.039 175.249 437.891C190.312 421.455 206.388 401.585 220.145 382.169C232.639 364.71 251.486 334.53 254.816 326.705L256.811 322.187L243.594 316.826C230.268 311.52 228.032 309.744 229.322 305.732C230.612 301.719 233.513 301.989 246.999 307.358C254.545 310.363 261.08 312.571 261.621 312.295C263.029 311.576 268.272 301.463 267.854 300.509C267.645 300.033 260.91 296.761 252.83 293.445C238.28 287.16 235.883 285.32 237.173 281.308C238.463 277.295 240.987 277.611 257.098 283.829L273.209 290.047L275.826 283.316L278.603 276.649L262.548 270.256C245.85 263.608 242.55 260.917 245.894 256.148C247.322 253.961 249.36 254.379 264.99 260.406L282.438 267.254L284.733 260.395L287.029 253.536L270.119 246.705C260.754 242.878 252.79 238.92 252.373 237.966C251.38 235.702 252.554 232.332 254.72 231.227C255.587 230.784 263.57 233.274 272.4 236.79C281.23 240.306 288.997 242.906 289.647 242.574C290.297 242.243 291.414 239.047 292.271 235.256L293.704 228.545L277.327 222.025C261.272 215.633 258.875 213.793 260.165 209.78C261.455 205.768 264.465 205.982 279.448 212.046C287.797 215.37 295.134 217.898 295.784 217.567C296.325 217.29 297.915 210.937 299.195 203.575C308.838 149.068 305.637 89.4472 291.061 52.2565C285.752 38.6308 283.412 36.6948 277.928 32.3467C274.784 30.0128 271.569 28.9497 268.082 28.2499C262.608 27.2511 260.666 27.6585 253.36 30.9485C246.865 33.9709 244.149 35.9398 241.523 39.3218ZM269.073 42.9116C274.48 44.9658 275.648 46.1198 277.633 50.649C283.902 64.9518 272.305 79.6195 258.979 74.3138C245.653 69.0081 245.048 49.4822 258.046 42.8503C262.162 40.7501 263.723 40.6829 269.073 42.9116ZM146.745 408.536C163.354 409.541 167.184 433.401 152.02 441.139C148.013 443.183 146.399 443.132 141.101 441.022C135.855 439.032 134.526 437.814 132.698 433.642C127.004 420.65 134.328 407.725 146.745 408.536Z" fill="#B0B0B0"/>
<path d="M248.983 57.5521C248.709 62.0666 252.102 65.877 255.499 65.1643C259.867 64.2479 262.019 60.0878 260.348 56.2742C258.52 52.103 255.791 51.0163 252.001 52.95C250.16 53.8892 249.01 55.4969 248.983 57.5521Z" fill="#B0B0B0"/>
<path d="M149.835 422.26C148.188 424.85 150.318 430.617 153.207 431.768C156.257 432.983 161.137 429.909 161.288 426.624C161.607 418.587 153.846 415.693 149.835 422.26Z" fill="#B0B0B0"/>
<path d="M14.4034 183.843C13.2734 185.713 14.1829 188.404 24.5299 212.231L35.9474 238.524L46.7979 233.398C55.8479 229.194 58.1191 228.462 59.8369 229.734C61.2959 230.709 61.8056 231.883 61.6209 233.842C61.3813 235.974 59.4158 237.411 50.6717 242.319L40.127 248.149L43.2872 255.426C45.1221 259.652 47.2828 263.137 48.381 263.579C49.793 264.147 68.2695 255.116 125.041 226.045C210.728 182.166 203.879 186.965 198.68 174.992L195.774 168.302L138.791 197.482C80.8541 227.15 79.2144 227.846 77.4304 223.738C77.0736 222.916 77.1524 221.011 77.6979 219.584C78.4672 217.181 85.038 213.529 135.137 187.875L191.697 158.912L187.364 148.934C182.318 137.314 181.915 132.212 185.627 126.15C187.781 122.464 190.009 121.036 209.392 111.111L230.787 100.155L229.909 95.152C229.42 92.5332 228.483 87.9911 227.679 85.2461C226.876 82.501 225.978 78.9433 225.633 77.2547L224.936 74.4554L120.395 127.988C51.2824 163.523 15.3176 182.37 14.4034 183.843Z" fill="#B0B0B0"/>
</svg>
