<svg xmlns="http://www.w3.org/2000/svg" width="336" height="381" fill="none"><path fill="#232830" fill-opacity=".5" d="M182.629 35.569c-3.081 5.07-4.617 13.746-3.133 18.2.634 1.96 2.912 7.684 4.925 12.794 9.92 23.814 13.041 57.879 8.374 90.611-7.216 50.17-31.942 105.141-71.141 158.267-5.718 7.642-7.289 10.6-8.375 15.28-3.657 15.473 8.052 28.938 23.17 26.533 8.312-1.224 12.648-4.662 22.022-17.21 10.722-14.542 22-31.779 31.481-48.307 8.624-14.883 21.36-40.166 23.435-46.47l1.255-3.652-10.803-1.823c-10.885-1.764-12.774-2.713-12.04-5.878.734-3.166 3.042-3.434 14.058-1.649 6.164.999 11.474 1.574 11.881 1.283 1.06-.756 4.482-9.056 4.085-9.691-.198-.318-5.742-1.645-12.348-2.787-11.921-2.289-13.941-3.259-13.206-6.425.734-3.165 2.747-3.339 15.894-1.351l13.146 1.988 1.589-5.383 1.72-5.363-13.114-2.125c-13.64-2.21-16.432-3.663-14.131-7.717.971-1.842 2.609-1.862 15.362.062l14.245 2.238 1.327-5.426 1.327-5.426-13.82-2.311c-7.656-1.313-14.217-2.947-14.614-3.583-.943-1.509-.254-4.182 1.376-5.346.653-.466 7.125.084 14.338 1.253 7.213 1.169 13.522 1.834 14.011 1.485.49-.349 1.146-2.885 1.554-5.817l.657-5.178-13.377-2.168c-13.115-2.125-15.135-3.095-14.401-6.261.735-3.165 3.124-3.492 15.37-1.436 6.819 1.105 12.785 1.786 13.274 1.437.408-.291 1.213-5.23 1.703-10.863 3.762-41.732-2.969-85.165-17.09-110.231-5.148-9.189-7.131-10.239-11.763-12.56-2.644-1.215-5.255-1.48-8.055-1.434-4.389.145-5.892.759-11.422 4.36-4.91 3.275-6.913 5.164-8.746 8.08Zm21.984-1.792c4.409.643 5.412 1.305 7.298 4.324 5.953 9.533-2.159 22.214-13.045 20.45-10.885-1.765-12.74-16.06-2.955-23.043 3.098-2.211 4.325-2.512 8.702-1.731Zm-70.696 289.221c13.172-1.935 17.877 15.036 6.462 23.182-3.017 2.153-4.293 2.375-8.621 1.674-4.278-.622-5.413-1.306-7.149-4.087-5.407-8.659-.542-19.366 9.308-20.769Z"/><path fill="#232830" fill-opacity=".5" d="M189.798 47.805c.102 3.372 3.047 5.634 5.677 4.561 3.38-1.38 4.784-4.792 3.197-7.334-1.736-2.78-3.965-3.142-6.818-1.106-1.386.989-2.18 2.36-2.056 3.879ZM137.322 332.616c-1.116 2.175.971 6.083 3.331 6.466 2.491.404 6.124-2.648 6.011-5.094-.315-5.976-6.641-6.859-9.342-1.372ZM13.681 178.691c-.76 1.56.148 3.397 9.99 19.294l10.86 17.542L42.729 210c6.842-4.556 8.582-5.462 10.027-4.801 1.22.483 1.704 1.267 1.697 2.741-.04 1.61-1.488 2.985-8.039 8.012l-7.906 5.997 3.006 4.855c1.746 2.819 3.696 5.04 4.593 5.189 1.154.191 15.09-9.443 57.819-40.019 64.491-46.148 59.427-41.508 54.481-49.495l-2.763-4.464-42.888 30.69c-43.605 31.203-44.85 31.981-46.546 29.24-.34-.549-.412-1.966-.082-3.106.437-1.895 5.362-5.645 43.068-32.627l42.569-30.462-4.121-6.656c-4.8-7.753-5.478-11.449-2.978-16.516 1.439-3.063 3.096-4.475 17.685-14.914l16.102-11.523-1.045-3.547c-.571-1.85-1.63-5.048-2.458-6.942-.827-1.894-1.786-4.372-2.177-5.561l-.748-1.951-78.68 56.303c-52.007 37.328-79.046 57.015-79.663 58.248Z"/></svg>