<svg xmlns="http://www.w3.org/2000/svg" width="68" height="68" fill="none"><circle cx="4" cy="4" r="4" fill="#F24E1E"/><circle cx="16" cy="4" r="4" fill="#F24E1E"/><circle cx="28" cy="4" r="4" fill="#F24E1E"/><circle cx="40" cy="4" r="4" fill="#F24E1E"/><circle cx="52" cy="4" r="4" fill="#F24E1E"/><circle cx="64" cy="4" r="4" fill="#F24E1E"/><circle cx="4" cy="16" r="4" fill="#F24E1E"/><circle cx="16" cy="16" r="4" fill="#F24E1E"/><circle cx="28" cy="16" r="4" fill="#F24E1E"/><circle cx="40" cy="16" r="4" fill="#F24E1E"/><circle cx="52" cy="16" r="4" fill="#F24E1E"/><circle cx="64" cy="16" r="4" fill="#F24E1E"/><circle cx="4" cy="28" r="4" fill="#F24E1E"/><circle cx="16" cy="28" r="4" fill="#F24E1E"/><circle cx="28" cy="28" r="4" fill="#F24E1E"/><circle cx="40" cy="28" r="4" fill="#F24E1E"/><circle cx="52" cy="28" r="4" fill="#F24E1E"/><circle cx="64" cy="28" r="4" fill="#F24E1E"/><circle cx="4" cy="40" r="4" fill="#F24E1E"/><circle cx="16" cy="40" r="4" fill="#F24E1E"/><circle cx="28" cy="40" r="4" fill="#F24E1E"/><circle cx="40" cy="40" r="4" fill="#F24E1E"/><circle cx="52" cy="40" r="4" fill="#F24E1E"/><circle cx="64" cy="40" r="4" fill="#F24E1E"/><circle cx="4" cy="52" r="4" fill="#F24E1E"/><circle cx="16" cy="52" r="4" fill="#F24E1E"/><circle cx="28" cy="52" r="4" fill="#F24E1E"/><circle cx="40" cy="52" r="4" fill="#F24E1E"/><circle cx="52" cy="52" r="4" fill="#F24E1E"/><circle cx="64" cy="52" r="4" fill="#F24E1E"/><circle cx="4" cy="64" r="4" fill="#F24E1E"/><circle cx="16" cy="64" r="4" fill="#F24E1E"/><circle cx="28" cy="64" r="4" fill="#F24E1E"/><circle cx="40" cy="64" r="4" fill="#F24E1E"/><circle cx="52" cy="64" r="4" fill="#F24E1E"/><circle cx="64" cy="64" r="4" fill="#F24E1E"/></svg>