<svg xmlns="http://www.w3.org/2000/svg" width="64" height="64" fill="none"><circle cx="32" cy="32" r="32" fill="#323843"/><path fill="#FF4300" d="M42.085 10.156c-.557.64-.97 1.917-.855 2.683.048.335.25 1.337.427 2.23.903 4.188.598 9.644-.8 14.516-2.152 7.464-6.937 14.83-13.768 21.21-.994.914-1.287 1.3-1.547 1.976-.87 2.233.52 4.895 2.754 5.25 1.227.212 1.928-.114 3.558-1.615a64.224 64.224 0 0 0 5.611-6.003c1.574-1.9 3.971-5.223 4.41-6.105l.262-.508-1.518-.805c-1.53-.801-1.782-1.04-1.606-1.498.176-.457.515-.387 2.064.423.867.453 1.62.8 1.686.774.17-.067.847-1.194.803-1.312-.021-.06-.791-.534-1.719-1.03-1.669-.933-1.939-1.182-1.763-1.64.177-.457.47-.387 2.323.558l1.852.945.349-.762.367-.752-1.845-.965c-1.918-1.003-2.289-1.364-1.867-1.884.18-.24.417-.164 2.214.752l2.006 1.036.311-.78.312-.781-1.943-1.028c-1.075-.574-1.985-1.145-2.028-1.264-.103-.28.056-.663.317-.766.104-.04 1.026.357 2.04.888 1.015.53 1.91.939 1.988.908.079-.03.23-.394.353-.83l.21-.775-1.882-.984c-1.844-.965-2.114-1.213-1.938-1.671.176-.457.528-.393 2.249.519.959.501 1.804.896 1.883.865.065-.026.29-.756.486-1.61 1.467-6.317 1.459-13.406-.023-17.992-.539-1.68-.802-1.939-1.418-2.524-.355-.317-.726-.484-1.13-.613-.637-.189-.867-.166-1.745.128-.78.273-1.111.47-1.44.836Zm3.21.782c.622.314.752.465.957 1.026.648 1.773-.803 3.355-2.334 2.555-1.531-.8-1.482-3.117.084-3.731.496-.195.68-.183 1.293.15ZM28.69 52.566c1.943.335 2.245 3.205.418 3.922-.482.19-.671.163-1.28-.156-.603-.303-.752-.464-.94-.981-.589-1.61.35-3.043 1.802-2.785Z"/><path fill="#FF4300" d="M43.416 12.477c-.06.53.315 1.024.718.985.518-.052.796-.515.623-.988-.189-.517-.502-.68-.959-.502a.566.566 0 0 0-.382.505ZM28.4 54.165c-.209.284.006.994.338 1.167.35.184.941-.116.979-.502.086-.946-.806-1.39-1.317-.665ZM14.452 24.84c-.146.215-.056.558 1.021 3.634l1.188 3.394 1.322-.48c1.102-.39 1.376-.449 1.572-.268.167.14.22.292.186.53-.042.26-.285.409-1.355.89l-1.29.57.33.94c.19.545.425 1.004.552 1.074.164.09 2.417-.764 9.346-3.548 10.458-4.203 9.614-3.708 9.073-5.254l-.302-.863-6.955 2.795c-7.072 2.841-7.271 2.904-7.457 2.374-.037-.106-.015-.34.059-.508.106-.285.91-.642 7.025-3.1l6.903-2.773-.45-1.288c-.526-1.5-.541-2.134-.061-2.828.279-.423.553-.567 2.919-1.518l2.611-1.05-.072-.627c-.042-.33-.124-.901-.202-1.25-.078-.349-.162-.8-.192-1.012l-.065-.354-12.76 5.128c-8.436 3.407-12.828 5.224-12.946 5.392Z"/></svg>