<svg xmlns="http://www.w3.org/2000/svg" width="96" height="82" fill="none"><path fill="#EEE" d="M0 33.197h5.452c1.723 0 3.025.133 3.908.4.891.265 1.61.806 2.155 1.62.545.807.818 2.111.818 3.913 0 1.218-.195 2.067-.585 2.548-.38.48-1.138.85-2.271 1.107 1.263.283 2.12.755 2.57 1.415.45.652.675 1.656.675 3.011v1.93c0 1.408-.164 2.45-.493 3.128a2.593 2.593 0 0 1-1.545 1.39c-.71.248-2.164.373-4.362.373H0V33.197Zm5.465 3.565v4.633c.234-.009.416-.013.546-.013.536 0 .878-.129 1.025-.386.147-.266.22-1.017.22-2.252 0-.652-.06-1.107-.181-1.364-.121-.266-.281-.434-.48-.502-.19-.069-.567-.108-1.13-.116Zm0 7.876v5.83c.77-.027 1.26-.147 1.467-.361.217-.215.325-.742.325-1.583v-1.943c0-.892-.095-1.433-.286-1.622-.19-.188-.692-.296-1.506-.321ZM19.226 43.57h-4.92v-1.146c0-1.321.151-2.338.454-3.05.312-.72.93-1.355 1.857-1.904.926-.55 2.129-.824 3.608-.824 1.775 0 3.112.313 4.012.94.9.617 1.44 1.38 1.623 2.29.181.901.272 2.763.272 5.585v8.57H21.03v-1.518c-.32.61-.735 1.069-1.246 1.377-.502.3-1.103.45-1.804.45a4.516 4.516 0 0 1-2.532-.759c-.761-.514-1.142-1.634-1.142-3.358V48.82c0-1.278.203-2.15.61-2.612.407-.464 1.415-1.004 3.025-1.622 1.722-.669 2.644-1.12 2.765-1.351.121-.232.182-.703.182-1.416 0-.892-.07-1.47-.208-1.737-.13-.274-.35-.412-.662-.412-.355 0-.576.116-.662.348-.087.223-.13.81-.13 1.763v1.789Zm1.662 2.342c-.84.609-1.329 1.12-1.467 1.531-.13.412-.195 1.004-.195 1.776 0 .884.056 1.454.169 1.712.12.257.355.386.7.386.33 0 .542-.1.637-.296.104-.206.156-.738.156-1.596v-3.513ZM33.181 36.955l-.207 2.24c.761-1.605 1.865-2.455 3.31-2.549v6.01c-.96 0-1.666.129-2.116.386-.45.257-.727.618-.831 1.08-.104.456-.156 1.51-.156 3.167v6.743h-5.244V36.955h5.244ZM42.71 33.197v4.929c.432-.498.913-.866 1.44-1.107a4.084 4.084 0 0 1 1.74-.373c.719 0 1.342.112 1.87.335.528.223.93.536 1.207.94.277.402.441.797.493 1.183.06.386.091 1.21.091 2.47v7.697c0 1.252-.086 2.187-.26 2.805-.164.609-.558 1.14-1.18 1.596-.624.446-1.364.669-2.22.669-.615 0-1.19-.133-1.727-.4-.528-.265-1.013-.664-1.454-1.196l-.338 1.287h-4.907V33.197h5.245Zm1.596 8.61c0-.884-.056-1.459-.168-1.725-.113-.274-.333-.412-.662-.412-.32 0-.528.12-.623.36-.096.232-.143.824-.143 1.776v7.361c0 .919.052 1.506.156 1.764.112.257.328.386.649.386.328 0 .54-.133.636-.4.104-.265.155-.904.155-1.917v-7.194ZM89.418 36.955l-.208 2.24c.762-1.605 1.865-2.455 3.31-2.549v6.01c-.96 0-1.665.129-2.115.386-.45.257-.727.618-.831 1.08-.104.456-.156 1.51-.156 3.167v6.743h-5.245V36.955h5.245Z"/><path fill="#FF4300" d="M81.344 18.439c-.71.699-1.356 1.956-1.341 2.64.004.3.079 1.183.142 1.971.38 3.684-.762 8.772-3.027 13.534-3.481 7.299-9.857 15.02-18.349 22.23-1.233 1.036-1.613 1.448-2 2.122-1.292 2.227-.149 4.41 2.268 4.303 1.323-.044 2.147-.482 4.17-2.183a106.782 106.782 0 0 0 7.088-6.624c2.02-2.059 5.16-5.588 5.775-6.486l.365-.519-1.559-.447c-1.574-.44-1.816-.61-1.554-1.067.262-.456.626-.457 2.219-.013.89.25 1.672.422 1.748.385.197-.094 1.112-1.265 1.082-1.365-.015-.05-.796-.338-1.748-.615-1.706-.535-1.968-.711-1.706-1.167.263-.456.577-.449 2.485.061l1.907.51.498-.77.516-.764-1.896-.53c-1.972-.55-2.328-.811-1.785-1.373.236-.256.486-.232 2.336.262l2.063.565.46-.78.46-.781-1.995-.569c-1.103-.32-2.025-.67-2.055-.77-.072-.238.16-.622.463-.767.122-.059 1.081.129 2.124.42 1.043.292 1.972.494 2.063.45.091-.044.311-.408.513-.834l.346-.755-1.934-.54c-1.896-.53-2.158-.707-1.896-1.163.262-.456.642-.465 2.409.04.986.276 1.862.475 1.953.431.076-.036.433-.753.775-1.578 2.555-6.108 3.592-12.64 2.632-16.578-.347-1.443-.6-1.63-1.194-2.05-.346-.223-.73-.305-1.159-.344-.675-.05-.933.015-1.946.457-.903.403-1.298.65-1.716 1.05Zm3.433.096c.64.168.762.282.906.76.454 1.506-1.384 3.248-2.958 2.808-1.573-.44-1.177-2.583.645-3.455.576-.276.777-.3 1.407-.113Zm-24.5 41.598c2.098-.07 2.009 2.516-.116 3.533-.562.269-.767.28-1.392.106-.622-.162-.762-.282-.895-.721-.412-1.37.837-2.873 2.404-2.918Z"/><path fill="#FF4300" d="M79.297 20.267c-.144.5.197.884.648.768.58-.148.956-.63.835-1.032-.132-.44-.454-.53-.985-.275-.258.123-.444.313-.498.54ZM62.894 61.706c-.273.303-.14.915.2 1.01.36.101 1.059-.29 1.157-.654.236-.889-.685-1.123-1.357-.356ZM49.007 35.3c-.18.206-.133.478.574 2.873l.778 2.642 1.438-.63c1.197-.517 1.49-.613 1.67-.495.154.089.189.207.121.413-.078.224-.35.391-1.527.98l-1.416.7.215.73c.126.425.307.77.43.806.16.047 2.614-1.056 10.186-4.582 11.43-5.323 10.486-4.763 10.131-5.966l-.198-.672-7.6 3.54c-7.729 3.598-7.944 3.685-8.066 3.272-.024-.082.03-.282.129-.435.15-.257 1.032-.695 7.715-3.807l7.544-3.514-.296-1.002c-.344-1.168-.275-1.697.317-2.361.347-.403.65-.571 3.236-1.775l2.854-1.33.009-.513a9.908 9.908 0 0 0-.042-1.014 9.63 9.63 0 0 1-.064-.815l-.02-.286-13.944 6.493c-9.222 4.308-14.029 6.587-14.174 6.749Z"/></svg>